<?xml version="1.0" standalone="no"?>
<!DOCTYPE svg PUBLIC "-//W3C//DTD SVG 20010904//EN"
 "http://www.w3.org/TR/2001/REC-SVG-20010904/DTD/svg10.dtd">
<svg version="1.0" xmlns="http://www.w3.org/2000/svg"
 width="1068.000000pt" height="122.000000pt" viewBox="0 0 1068.000000 122.000000"
 preserveAspectRatio="xMidYMid meet">

<g transform="translate(0.000000,122.000000) scale(0.100000,-0.100000)"
fill="#000000" stroke="none">
<path d="M6909 1152 c-121 -32 -189 -97 -208 -199 -18 -93 2 -156 67 -215 46
-41 114 -66 292 -103 186 -40 241 -81 227 -171 -13 -77 -66 -114 -178 -122
-158 -11 -232 40 -263 181 -6 27 -7 27 -88 27 l-81 0 6 -55 c6 -63 47 -145 90
-181 97 -82 269 -113 431 -79 122 26 202 91 231 187 30 102 14 182 -49 244
-50 50 -112 74 -277 108 -158 33 -202 50 -235 89 -52 61 -10 151 83 176 135
38 269 -15 294 -115 l11 -44 79 0 79 0 0 33 c0 72 -69 170 -150 212 -86 44
-247 56 -361 27z"/>
<path d="M1594 695 l1 -465 74 0 74 0 -5 363 c-3 199 -3 358 -1 352 2 -5 63
-167 136 -360 l133 -350 64 -3 65 -3 119 328 c66 180 124 338 130 350 8 16 10
-71 8 -328 l-3 -349 81 0 80 0 0 465 0 466 -102 -3 -103 -3 -129 -358 c-71
-197 -132 -354 -136 -350 -6 7 -83 208 -250 656 l-21 57 -108 0 -107 0 0 -465z"/>
<path d="M5070 1100 l0 -60 130 0 129 0 7 -37 c4 -20 5 -202 2 -405 l-5 -368
85 0 85 0 -6 246 c-3 135 -3 317 0 405 l6 158 131 3 131 3 0 55 0 55 -347 3
-348 2 0 -60z"/>
<path d="M3960 1065 l0 -75 80 0 80 0 0 75 0 75 -80 0 -80 0 0 -75z"/>
<path d="M3481 910 c-129 -28 -201 -128 -171 -241 23 -88 63 -111 251 -150
165 -33 189 -46 189 -100 0 -65 -49 -99 -144 -99 -34 0 -67 8 -96 23 -38 19
-47 29 -60 69 l-15 48 -72 0 c-71 0 -73 -1 -73 -25 0 -37 27 -95 58 -128 69
-74 217 -105 354 -76 64 14 104 33 141 68 43 39 57 74 57 139 0 113 -61 160
-251 193 -63 11 -127 25 -142 31 -60 24 -70 83 -21 129 18 17 40 24 83 27 81
6 127 -17 153 -75 l19 -43 69 0 c66 0 70 1 70 23 -1 32 -33 98 -61 124 -63 57
-223 87 -338 63z"/>
<path d="M4420 907 c-155 -44 -238 -178 -228 -366 9 -145 68 -241 183 -293 73
-33 219 -32 289 2 85 41 141 113 161 207 l7 33 -75 0 -75 0 -7 -32 c-19 -86
-68 -128 -150 -128 -106 0 -162 65 -172 201 -8 109 10 182 57 233 38 41 39 41
110 41 70 0 72 -1 106 -38 19 -20 37 -51 41 -67 l6 -30 73 0 c41 0 74 4 74 8
0 5 -7 31 -15 58 -20 67 -72 126 -136 154 -65 27 -184 36 -249 17z"/>
<path d="M5850 907 c-144 -41 -230 -167 -230 -337 0 -148 70 -271 182 -321 44
-19 70 -23 153 -24 90 0 106 3 157 28 96 47 149 124 169 246 29 176 -42 333
-180 394 -56 25 -188 32 -251 14z m191 -120 c19 -12 45 -44 58 -71 21 -42 25
-64 25 -145 1 -83 -3 -103 -24 -146 -33 -66 -77 -95 -144 -95 -71 0 -115 26
-146 86 -22 43 -25 61 -25 154 0 93 3 111 25 154 31 60 75 86 146 86 36 0 61
-7 85 -23z"/>
<path d="M7720 907 c-155 -44 -238 -178 -228 -366 9 -145 68 -241 183 -293 73
-33 219 -32 289 2 85 41 141 113 161 207 l7 33 -75 0 -75 0 -7 -32 c-19 -86
-68 -128 -150 -128 -106 0 -162 65 -172 201 -8 109 10 182 57 233 38 41 39 41
110 41 70 0 72 -1 106 -38 19 -20 37 -51 41 -67 l6 -30 73 0 c41 0 74 4 74 8
0 5 -7 31 -15 58 -20 67 -72 126 -136 154 -65 27 -184 36 -249 17z"/>
<path d="M8786 904 c-67 -21 -136 -92 -166 -170 -64 -166 -18 -385 96 -463
105 -72 245 -66 328 15 19 19 36 34 38 34 2 0 3 -19 3 -42 l0 -43 78 -3 77 -3
0 341 0 340 -81 0 -81 0 4 -45 3 -44 -30 28 c-16 16 -46 37 -65 46 -47 24
-144 28 -204 9z m215 -117 c19 -12 45 -44 59 -72 21 -43 25 -64 25 -145 0 -81
-4 -102 -25 -145 -36 -72 -79 -98 -152 -93 -66 5 -96 27 -130 92 -26 51 -35
175 -18 246 13 54 57 115 94 130 42 17 112 11 147 -13z"/>
<path d="M9594 904 c-23 -8 -60 -34 -83 -56 l-41 -42 0 52 0 52 -75 0 -75 0 0
-455 0 -455 81 0 81 0 -4 155 c-1 85 0 155 3 155 3 0 18 -14 34 -30 63 -66
199 -77 296 -24 140 77 197 293 128 481 -53 142 -206 216 -345 167z m127 -117
c19 -12 45 -44 59 -72 21 -42 25 -64 25 -145 0 -82 -4 -102 -25 -145 -32 -64
-78 -95 -139 -95 -66 0 -111 28 -141 86 -22 43 -25 61 -25 154 0 93 3 111 25
154 43 84 146 113 221 63z"/>
<path d="M10240 907 c-155 -44 -239 -179 -227 -366 11 -192 118 -304 302 -318
171 -13 306 75 339 220 l7 28 -77 -3 c-76 -3 -77 -4 -88 -33 -26 -72 -72 -105
-149 -105 -27 0 -64 7 -83 16 -44 21 -83 86 -91 153 l-6 51 252 0 251 0 0 44
c0 124 -78 251 -182 296 -64 27 -183 36 -248 17z m174 -111 c38 -16 73 -61 82
-105 l7 -31 -167 0 -167 0 7 23 c18 60 49 98 94 116 37 14 106 13 144 -3z"/>
<path d="M2633 658 c5 -286 9 -311 72 -373 88 -88 235 -85 339 6 l46 41 0 -51
0 -51 75 0 75 0 0 340 0 340 -79 0 -80 0 -3 -212 c-3 -199 -4 -216 -26 -260
-30 -60 -71 -90 -132 -96 -44 -4 -51 -1 -86 31 l-39 35 -3 251 -3 251 -80 0
-81 0 5 -252z"/>
<path d="M3960 570 l0 -340 80 0 80 0 0 340 0 340 -80 0 -80 0 0 -340z"/>
<path d="M8180 570 l0 -340 74 0 74 0 4 198 c3 178 5 201 25 237 43 80 118
125 209 125 l44 0 0 61 0 62 -63 -5 c-74 -6 -152 -42 -191 -88 l-26 -32 0 61
0 61 -75 0 -75 0 0 -340z"/>
<path d="M4850 605 l0 -55 165 0 165 0 0 55 0 55 -165 0 -165 0 0 -55z"/>
<path d="M6320 605 l0 -55 165 0 165 0 0 55 0 55 -165 0 -165 0 0 -55z"/>
</g>
</svg>
